<svg width="260" height="296" viewBox="0 0 260 296" fill="none" xmlns="http://www.w3.org/2000/svg">
<path d="M150 190C144.48 190 140 194.48 140 200C140 205.52 144.48 210 150 210C155.52 210 160 205.52 160 200C160 194.48 155.52 190 150 190Z" fill="black"/>
<path d="M110 190C104.48 190 100 194.48 100 200C100 205.52 104.48 210 110 210C115.52 210 120 205.52 120 200C120 194.48 115.52 190 110 190Z" fill="black"/>
<path d="M86.75 110H73.25C54.916 110 40 124.916 40 143.25V147.75C40 167.039 55.851 181.029 73.14 181.029C81.394 181.029 85.794 178.267 97.266 174.789C110.875 170.262 120 157.535 120 143.25C120 124.916 105.084 110 86.75 110ZM90.954 155.811C90.953 155.812 90.951 155.812 90.95 155.813L77.438 160.314C68.833 163.181 60.001 156.784 60.001 147.751V143.25H60C60 135.944 65.944 130 73.25 130H86.75C94.056 130 100 135.944 100 143.25C100 148.841 96.443 153.986 90.954 155.811Z" fill="black"/>
<path d="M186.75 110H173.25C154.874 110 140 124.87 140 143.25C140 157.572 149.131 170.245 162.73 174.787L176.238 179.286C197.734 186.454 220 170.518 220 147.75V143.25C220 124.916 205.084 110 186.75 110ZM200 147.75C200 156.803 191.151 163.175 182.563 160.313C182.562 160.312 182.561 160.312 182.56 160.312L169.057 155.815C163.64 154.004 159.999 148.956 159.999 143.25C160 135.926 165.926 130 173.25 130H186.75C194.056 130 200 135.944 200 143.25V147.75Z" fill="black"/>
<path d="M260 110C260 38.045 201.919 0 130 0C58.021 0 0 38.097 0 110C0 125.81 2.936 149.238 8.427 165.604C3.013 172.575 0 181.162 0 190C0 216.409 25.752 235.827 51.044 228.321L57.663 228.327C59.154 230.063 60 232.301 60 234.66V266C60 282.542 73.458 296 90 296H170C186.542 296 200 282.542 200 266V233.87C200 231.867 200.72 229.978 201.994 228.506L209.706 228.518C234.851 235.434 260 216.177 260 190C260 181.161 256.987 172.575 251.573 165.604C257.065 149.238 260 125.81 260 110ZM233.333 175.237C237.632 179.125 240 184.368 240 190C240 203.357 226.901 212.918 214.088 208.964C213.138 208.671 212.15 208.522 211.155 208.52C200.169 208.87 197.05 207.528 193.061 210.07C184.883 215.288 180 224.186 180 233.87V266C180 271.514 175.514 276 170 276H160V240C160 234.478 155.522 230 150 230C144.478 230 140 234.478 140 240V276H120V240C120 234.478 115.522 230 110 230C104.477 230 100 234.478 100 240V276H90C84.486 276 80 271.514 80 266V234.66C80 219.372 68.264 208.337 61.348 208.33C61.205 208.33 49.409 208.32 49.51 208.32C45.391 208.32 42.198 211.745 33.649 208.825C33.501 208.775 33.353 208.728 33.203 208.685C25.299 205.808 20 198.318 20 190C20 184.368 22.368 179.125 26.667 175.237C29.852 172.357 30.842 167.767 29.129 163.83C23.415 150.699 20 126.148 20 110C20 43.643 76.823 20 130 20C183.178 20 240 43.643 240 110C240 126.148 236.585 150.699 230.871 163.83C229.157 167.767 230.148 172.357 233.333 175.237Z" fill="black"/>
</svg>
