<svg id="Capa_1" enable-background="new 0 0 512 512" height="512" viewBox="0 0 512 512" width="512" xmlns="http://www.w3.org/2000/svg"><path d="m100.887 164.168c4.047.932 8.08-1.588 9.013-5.633l6.82-29.557 65.199-18.034c.791-.219 1.542-.566 2.221-1.027l72.503-49.274 115.055 58.228 25.9 53.623c1.901 3.935 6.906 5.415 10.651 3.165 3.283-1.973 4.548-6.257 2.884-9.702l-27.006-55.912c-.717-1.485-1.902-2.693-3.374-3.437l-121.276-61.376c-2.439-1.235-5.357-1.047-7.618.489l-75.141 51.067-68.318 18.896c-2.658.735-4.699 2.866-5.32 5.553l-7.827 33.917c-.933 4.046 1.589 8.081 5.634 9.014z"/><path d="m490.552 265.365c-.255-1.856-1.195-3.55-2.634-4.75l-51.994-43.329-11.722-24.268c-1.805-3.738-6.299-5.303-10.036-3.499-3.737 1.805-5.304 6.299-3.499 10.036l12.429 25.732c.466.965 1.133 1.819 1.956 2.505l51.006 42.505 17.287 125.783-31.056-24.876c-1.333-1.068-2.991-1.65-4.699-1.65h-17.418l-22.274-11.137c-3.042-1.522-6.724-.809-8.981 1.732l-37.304 42.014-4.28-2.833c-2.777-1.837-6.433-1.628-8.984.514l-10.151 8.533-7.266-36.329c-.814-4.07-4.772-6.711-8.844-5.896-4.07.814-6.71 4.774-5.896 8.844l7.982 39.908h-163.843l22.857-90.777 71.611-51.532 51.638 53.623 3.867 19.336c.814 4.07 4.776 6.708 8.844 5.896 4.071-.814 6.71-4.774 5.896-8.844l-4.298-21.492c-.282-1.408-.961-2.706-1.956-3.739l-57.68-59.898c-2.592-2.693-6.769-3.069-9.804-.888l-79.125 56.94c-1.439 1.035-2.465 2.546-2.898 4.266l-22.684 90.088c-.851-.988-1.933-1.752-3.166-2.191l-26.861-9.532c-2.162-.767-4.553-.506-6.497.71l-11.5 7.188-17.263-25.79c-1.072-1.602-2.719-2.73-4.599-3.152l-42.458-9.531c-2.037-.463-4.175-.047-5.896 1.134l-6.156 4.221 18.454-117.209 38.561-18.266c2.077-.983 3.59-2.863 4.106-5.102l9.804-42.483c.933-4.045-1.589-8.08-5.633-9.013-4.043-.933-8.079 1.587-9.013 5.633l-8.986 38.939-38.863 18.408c-2.246 1.064-3.82 3.169-4.207 5.624l-21.282 135.167-7.113 4.877c-1.821 1.249-3 3.234-3.226 5.43l-4.765 46.358c-.334 3.247 1.466 6.337 4.455 7.65l35.526 15.597c1.553.682 3.319.817 4.958.381l43.118-11.498 13.309 5.176c.868.338 1.792.511 2.724.511h49.823c1.514 0 2.993-.458 4.244-1.313l16.463-11.264c3.5-2.392 4.305-7.388 1.732-10.76l-2.932-3.845h149.095c-1.319 1.111-2.216 2.64-2.54 4.334l-4.668 24.379c-.874 4.564 2.738 8.929 7.382 8.929h54.464c1.383 0 2.739-.382 3.919-1.103l17.117-10.46c1.535-.938 2.622-2.372 3.176-3.998h40.682l41.066 10.913c2.384.634 4.988.032 6.852-1.583l19.47-16.872c2.424-2.1 2.555-5.459 2.524-8.482v-14.597zm-398.205 148.836c-1.469.919-2.576 2.316-3.133 3.956l-6.505 19.153-39.058 10.416-28.099-12.336 3.85-37.447 24.756-16.975 36.334 8.156 15.331 22.904zm59.28 27.886h-46.088l-7.577-2.947 4.623-13.611 22.379-13.987 21.335 7.571 13.341 17.492zm223.449 10.46h-43.258l2.457-12.827 29.447-24.754 18.159 12.019 3.983 18.97zm108.09-5.165-38.17-10.143c-.63-.167-1.279-.253-1.93-.253h-43.727l-3.382-16.11c-.406-1.935-1.558-3.632-3.207-4.723l-8.476-5.61 32.057-36.104 18.706 9.353c1.044.522 2.194.794 3.361.794h16.553l29.079 23.293 11.55 28.746z"/></svg>