<?xml version="1.0" encoding="iso-8859-1"?>
<!-- Generator: Adobe Illustrator 19.0.0, SVG Export Plug-In . SVG Version: 6.00 Build 0)  -->
<svg version="1.1" id="Layer_1" xmlns="http://www.w3.org/2000/svg" xmlns:xlink="http://www.w3.org/1999/xlink" x="0px" y="0px"
	 viewBox="0 0 482.667 482.667" style="enable-background:new 0 0 482.667 482.667;" xml:space="preserve">
<g>
	<path d="M160.043,273.801c27.585,6.457,55.181-10.671,61.638-38.256l-99.894-23.383
		C115.331,239.748,132.458,267.344,160.043,273.801z"/>
	<path d="M260.954,235.545c6.457,27.585,34.053,44.713,61.638,38.256c27.585-6.457,44.713-34.053,38.256-61.638L260.954,235.545z"/>
	<path d="M442.661,218.961c0-60.171-20.742-115.689-58.404-156.328C346.826,22.243,296.266,0,241.892,0l-0.731,0.001L240.429,0
		c-54.37,0-104.928,22.244-142.361,62.635c-37.665,40.641-58.408,96.159-58.408,156.326l0,260.826l76.27-36.427l63.165,39.308
		l62.217-38.717l62.22,38.717l63.167-39.308l76.309,36.442L442.661,218.961z M364.799,409.207l-61.268,38.126l-62.22-38.717
		l-62.217,38.717l-61.267-38.126L69.66,432.213l0-213.252C69.661,111.236,143.075,30,240.429,30l0.731,0.002L241.892,30
		c97.354,0,170.769,81.236,170.769,188.981l0.283,213.218L364.799,409.207z"/>
</g>
<g>
</g>
<g>
</g>
<g>
</g>
<g>
</g>
<g>
</g>
<g>
</g>
<g>
</g>
<g>
</g>
<g>
</g>
<g>
</g>
<g>
</g>
<g>
</g>
<g>
</g>
<g>
</g>
<g>
</g>
</svg>
