<svg id="Capa_1" enable-background="new 0 0 512.016 512.016" height="512" viewBox="0 0 512.016 512.016" width="512" xmlns="http://www.w3.org/2000/svg"><g><path d="m440.54 248.57c-9.892-19.393-29.914-32.062-52.524-32.062-30.509 0-55.913 23.241-58.734 53.553-34.212 14.838-49.594 55.155-34.399 88.897-.447.851-.816 1.747-1.096 2.68-9.668 32.307-40.004 54.87-73.771 54.87-37.829 0-70.564-28.162-76.146-65.507-.592-3.965-2.748-7.528-5.984-9.894-28.277-20.664-68.749-17.666-93.384 8.49-9.181-3.936-19.404-6.089-29.486-6.089-8.284 0-15 6.716-15 15v138c0 8.284 6.716 15 15 15h482c8.284 0 15-6.716 15-15 0-19.569 0-161.036 0-181 0-39.103-34.064-68.964-71.476-66.938zm-92.84 46.888c7.479-1.716 12.457-8.799 11.537-16.417-2.158-17.885 11.909-32.533 28.778-32.533 13.462 0 25.057 9.13 28.194 22.202 1.96 8.163 10.252 13.141 18.391 11.008 23.915-6.267 47.415 12.236 47.415 35.791v29.554c-4.999 1.032-9.885 2.561-14.506 4.543-27.812-29.408-75.038-29.456-102.907-.085-13.573-5.973-28.677-7.51-43.077-4.516-7.71-19.4 2.773-44.177 26.175-49.547zm134.316 186.05h-452v-105.385c3.569 1.262 6.902 2.95 9.762 4.988 7.038 5.02 16.857 3.058 21.432-4.269 12.005-19.227 36.049-24.22 54.264-14.475 16.444 75.351 106.225 110.002 169.01 62.545 16.279-12.306 28.858-29.284 35.918-48.322 12.87-5.326 27.824-3.732 39.365 4.513 7.04 5.028 16.866 3.07 21.443-4.261 16.066-25.732 53.516-25.783 69.613-.001 4.577 7.335 14.399 9.283 21.432 4.27 2.859-2.039 6.192-3.726 9.762-4.988-.001 12.975-.001 87.349-.001 105.385z"/><path d="m178.946 238.218c7.908-1.648 12.745-8.864 12-16.19-.894-8.611-8.829-14.928-17.86-13.23-8.103 1.683-13.334 9.336-11.779 17.64 1.683 8.114 9.35 13.333 17.639 11.78z"/><path d="m238.365 283.148c-2.959-9.108-12.491-12.696-20.09-9.49-7.948 3.353-11.193 12.274-8.11 19.59 3.385 8.003 12.34 11.177 19.591 8.11 7.234-3.059 10.813-10.842 8.609-18.21z"/><path d="m177.306 354.438c1.691 8.148 9.385 13.327 17.64 11.78 8.467-1.764 13.381-9.88 11.771-17.64-1.614-8.533-10.501-14.025-19.051-11.42-8.094 2.583-11.788 10.465-10.36 17.28z"/><path d="m112.929 134.625c5.983 5.981 15.786 5.854 21.594-.395 9.215-9.915 24.812-10.232 34.398-.633 5.865 5.873 15.373 5.857 21.221.008l61-61c5.858-5.857 5.858-15.355 0-21.213l-46.489-46.49c-2.812-2.813-6.628-4.394-10.606-4.394h-179.031c-13.325 0-20.043 16.172-10.607 25.607zm74.904-104.117 31.489 31.49-41.264 41.264c-16.269-9.01-36.821-9.012-53.338.729l-73.488-73.483z"/></g></svg>