<?xml version="1.0" encoding="iso-8859-1"?>
<!-- Generator: Adobe Illustrator 18.1.1, SVG Export Plug-In . SVG Version: 6.00 Build 0)  -->
<svg version="1.1" id="Capa_1" xmlns="http://www.w3.org/2000/svg" xmlns:xlink="http://www.w3.org/1999/xlink" x="0px" y="0px"
	 viewBox="0 0 39.894 39.894" style="enable-background:new 0 0 39.894 39.894;" xml:space="preserve">
<g>
	<path style="fill:#1D1C1A;" d="M19.948,39.687c10.998,0,19.946-8.948,19.946-19.946v-0.763c0-0.049-0.073-5.061-2.682-10.076
		c-1.12-2.151-2.546-4.121-4.238-5.852c-1.937-1.981-2.586-2.135-2.739-2.135c-0.076,0.067-0.405,0.635,0.61,4.372
		c1.052,3.868,0.346,7.512-2.098,10.833c-0.68,0.923-4.552,4.188-9.221,4.188c-3.062,0-5.774-1.401-8.061-4.167
		c-1.435-1.735-2.377-5.144-1.401-8.301c0.613-1.984,2.232-4.605,6.469-5.827c0.29-0.083,0.727-0.129,1.229-0.129
		c3.418,0,7.523,1.726,7.846,6.589c0.147,2.247-1.534,5.745-5.616,6.117c-1.089,0.098-2.935-0.331-4.091-1.815
		c-0.621-0.796-1.244-2.205-0.692-4.391c0.273-1.088,1.798-2.354,3.354-2.354c0.623,0,1.191,0.195,1.69,0.579
		c0.013,0.01,0.069,0.057,0.081,0.068c0.282,0.201,0.518,0.462,0.675,0.755c0.165,0.308,0.253,0.656,0.253,1.006
		c0,1.232-1.095,2.229-2.306,2.12c-0.301-0.021-1.024-0.129-1.634-0.654c0.052,0.16,0.164,0.382,0.394,0.65
		c0.466,0.546,1.221,0.834,2.242,0.854c0.239-0.01,2.567-0.174,2.615-2.911c0.014-0.766-0.229-2.624-2.761-3.338
		c-0.385-0.109-0.821-0.166-1.263-0.166c-1.062,0-3.672,0.36-4.952,3.692c-0.382,0.994-0.397,3.198,0.766,4.984
		c1.118,1.718,3.005,2.655,5.609,2.785l0.15,0.004c1.438,0,3.741-0.917,5.358-2.668c0.948-1.027,2.036-2.771,1.839-5.244
		c-0.37-4.596-2.883-7.379-7.469-8.272c0.001,0,0.001,0,0.001,0c-0.005,0-0.489-0.067-1.286-0.067
		c-3.574,0-12.438,1.283-17.527,13.162C0.353,15.39,0,17.546,0,19.74C0.002,30.74,8.95,39.687,19.948,39.687z"/>
</g>
<g>
</g>
<g>
</g>
<g>
</g>
<g>
</g>
<g>
</g>
<g>
</g>
<g>
</g>
<g>
</g>
<g>
</g>
<g>
</g>
<g>
</g>
<g>
</g>
<g>
</g>
<g>
</g>
<g>
</g>
</svg>
